<?xml version="1.0" encoding="utf-8"?>
<!-- Generator: Adobe Illustrator 22.0.1, SVG Export Plug-In . SVG Version: 6.00 Build 0)  -->
<svg version="1.1" id="Layer_1" xmlns="http://www.w3.org/2000/svg" xmlns:xlink="http://www.w3.org/1999/xlink" x="0px" y="0px"
	 viewBox="0 0 255.1 85.2" style="enable-background:new 0 0 255.1 85.2;" xml:space="preserve">
<style type="text/css">
	.st0{clip-path:url(#SVGID_2_);fill:#D92E27;}
	.st1{clip-path:url(#SVGID_2_);fill:#FFFFFF;}
	.st2{clip-path:url(#SVGID_2_);fill:#1D2859;}
</style>
<g>
	<defs>
		<rect id="SVGID_1_" width="255.1" height="85.2"/>
	</defs>
	<clipPath id="SVGID_2_">
		<use xlink:href="#SVGID_1_"  style="overflow:visible;"/>
	</clipPath>
	<path class="st0" d="M5.8,79c17.9-4.3,36.8-6.6,55.1-6.6c30.4,0,90.7,8.9,121.9,8.9c15.7,0,30.6-2.9,41.6-5.8c11-2.9,18.8-6,18.8-6
		l7.9-63.2l4-1l-8.4,66.9c0,0-9.9,4-21.2,7c-11.2,2.9-26.4,5.9-42.6,5.9c-31.2,0-91.5-8.9-121.9-8.9c-18.9,0-37.4,2.7-55.6,6.9
		L5.8,79z"/>
	<path class="st1" d="M224.4,75.6c-11,2.9-25.9,5.8-41.6,5.8c-31.2,0-91.5-8.9-121.9-8.9c-20.3,0-41.4,2.8-60.9,8l8.7-69.6
		c0,0,7.9-2.8,18.9-5.3c11-2.5,26-5.1,41.5-5.1C99.6,0.5,159.8,8,191,8c20.3,0,41.4-2.8,60.9-8l-8.7,69.6
		C243.2,69.6,235.5,72.7,224.4,75.6"/>
	<path class="st2" d="M242,68.7c0,0-28.2,11.4-59.3,11.4c-31.2,0-91.5-8.9-121.9-8.9c-31,0-59.4,7.6-59.4,7.6l8.4-66.9
		c0,0,28.3-10.1,59.3-10.1c30.4,0,90.7,7.6,121.9,7.6c31.1,0,59.4-7.6,59.4-7.6L242,68.7z"/>
	<path class="st1" d="M169.2,52.7L169.2,52.7c-1.2-0.8-2.7-1.1-4.2-1.1c-1.7,0-3.3,0.5-4.6,1.3c0.5-0.8,0.8-1.7,0.9-2.8
		c0.1-2.2-1.4-4.4-3.4-5c0.6-0.6,1.2-1.2,1.8-1.9c0.9,0.7,2,1,3.2,0.9c0.9-0.1,1.6-0.5,2.3-1l0.1,0.3c0.9,1.6,2.5,5.5,3.8,9.3
		C169.2,52.6,169.2,52.7,169.2,52.7 M114.4,27.8c-0.1,0.7-0.2,1.7-0.4,3.5l-1.3,9.6c-0.3,2.2-0.5,4.1-0.7,5.4
		c-0.2,0-0.5-0.1-0.7-0.1c0.2-1.9,0.3-2.5,0.6-5l0.2-1.5l0.2-1.5l1.2-10.5c0.2,0,0.3,0.1,0.5,0.1C114,27.8,114.2,27.8,114.4,27.8
		 M95.9,27.8c0,0.1,0,0.2,0,0.3c-0.1-0.1-0.2-0.3-0.2-0.4C95.8,27.8,95.8,27.8,95.9,27.8 M65.3,33.9c-2.7,3.6-4.5,8-5.1,12.6
		c-0.1,0.7-0.1,1.3-0.1,1.9c0-0.1-0.1-0.2-0.1-0.3c0-1.8,0.1-2.5,0.3-5.3c0.5-5.3,0.9-9.6,1.1-10.9c0.1-0.5,0.1-1.1,0.2-1.7
		c0,0,0,0,0,0l0,0c0,0,0,0,0,0.1c0.2,0.5,0.4,0.8,0.6,1.1C63,32.7,64.1,33.5,65.3,33.9 M224.4,33.9c0.2-2-0.4-3.8-1.9-5.1
		c-2.5-2.2-6.9-3.1-10.6-2.8c-1.7,0.2-3.4,0.5-5,1.1c0.1-0.7,0.1-1.4,0.1-2c0-5.7-3.4-10-9.1-10c-4.9,0-8.4,3.3-8.4,8.3
		c0,1.3,0.2,2.5,0.6,3.5c-0.4-0.1-0.8-0.2-1.2-0.3c-4.1-0.6-8.3,2.2-8.3,6.7c0,0,0,0.1,0,0.1l0,0c-0.3-0.7-0.6-1.3-0.9-1.9
		c-1.3-2.8-3.1-5-6.3-5.1c-1.6-0.1-3.3,0.3-5.1,1.2c-1.5,0.8-4,2.5-6,4c-1.4-3.7-5-5.5-9.9-5.5c-9.3,0-17.9,5.6-21.8,13.3l0.1-1
		l1.5-13.9l0.1-0.7l0.1-0.9l0.1-0.8c0.1-0.8,0.2-1.7,0.1-2.5c-0.4-3.6-3.4-4.6-6.6-4.3c-3.2,0.2-5.9,0.8-9,1.9
		c-1.1,0.3-2.1,0.8-3.1,1.3c-0.9-2.6-3.6-3.4-6.3-3.2c-3.2,0.2-5.9,0.8-9,1.9c-3.1,1-6.3,2.6-6.5,6.3c-0.1,1.1,0.2,2.2,0.9,3.1
		c0,0-0.1,0-0.1,0c-1.9-0.2-4.1,0.4-5.8,1.2l-0.7,0.3l-0.6,0.4l-0.5,0.3c-0.1,0-0.1,0-0.3-0.1c-2.5-1.4-3.9-2.1-6-2.1
		c-1.5,0-3,0.3-4.5,0.8c0-0.1,0-0.2,0-0.3c0-4.5-2.7-11.3-7.7-11.5c-0.5,0-1.2,0-1.9,0.2c-2.1,0.5-4.1,0.4-6.3,0.5
		c-3.1,0-6.2,0.1-9.3,0.1h-3.9c-0.4,0-0.7,0-1,0c-1.3-0.3-2.4-0.6-3.7-0.5c-5,0.4-9.2,7.4-9.2,12.1c0,3.6,2,6.7,6,7
		c2,0.2,3.8-0.6,5.2-1.9c0.2-0.3,0.5-0.5,0.7-0.8c-0.1,0.9-0.2,1.8-0.3,2.8c-0.5,4-1.1,8-1.7,12c-0.2,1-0.4,1.6-0.5,1.9l-0.4,0.2
		L40,48.7l-0.4,0.2L39.1,49c-0.2,0.1-0.5,0.2-0.7,0.3c-2,1-2.9,2.6-2.8,4.7c0.5,6.4,9.5,6,14,6c1.1,0,3.8-0.2,5.7-0.4
		c2-0.3,3.3-0.5,4.4-0.8c1.2-0.4,2.2-0.9,3.1-1.7c1.5,1.9,3.7,3.1,6.6,3.2c3.2,0.1,6.7-1.2,9.2-3.5l0.1,0.1c0.8,1.7,2.3,2.7,4.1,3
		c3,0.4,6.6-0.7,9.9-2.6c0.3-0.2,0.6-0.4,1-0.6c1,1.9,3,3.1,5.6,3.2c3.9,0.2,8.2-1.1,11.9-3.3c0.2-0.2,0.5-0.3,0.7-0.5
		c0.9,2.3,3.1,3.7,5.9,3.8c3.9,0.2,8.2-1.1,11.9-3.3c0.6-0.4,1.2-0.8,1.7-1.3c0.1,0.2,0.2,0.4,0.4,0.5c2.9,3.2,6.8,4.4,12.2,4.4
		c3.7,0,7.7-1.1,11.6-3.1c0.9-0.5,1.8-1,2.6-1.6c-0.8,1.4-1.2,3.2-0.9,5c0.7,5.8,5.9,9.6,12,9.6c8.1,0,15-4.9,20.1-13.2
		c2.7-4.4,4.7-9.8,5.6-15c0.4,0.1,0.8,0.2,1.3,0.1c0.7-0.1,1.5-0.4,2.2-0.8c0.5,1.5,1.3,2.9,2.3,4.3c-0.2,0-0.3,0-0.5,0
		c-3.2,0-5.4,3.1-5.5,6c-0.3,6.4,6.4,8.6,13,8.6c3.5,0,7.8-1.1,10.6-2.8c3-1.9,4.9-4.5,5.3-8c0.4-3.7-1.1-6.8-4-9.8
		C222.2,39.5,224.2,36.6,224.4,33.9"/>
	<path class="st0" d="M71.8,26.7c0-4.4-2.6-8.9-5.2-9c-0.4,0-0.8,0-1.2,0.1c-2.1,0.5-1.3,0.4-6.8,0.5c-4.6,0.1-4.6,0.1-9.4,0.1h-3.9
		c-0.9,0-1.5,0-1.8-0.1c-2.2-0.5-2.1-0.5-2.8-0.4c-3.1,0.3-6.8,5.5-6.8,9.6c0,2.7,1.3,4.3,3.6,4.5c1.3,0.1,2.3-0.3,3.2-1.2
		c0.7-0.7,1.1-1.3,2.2-3.8c0.6-1.3,1.2-1.9,2-1.9c0.8,0,1.3,0.7,1.3,1.7c0,0.3,0,0.6-0.1,0.8c-0.2,1.8-0.4,4.3-0.8,7.3
		c-0.9,6.7-0.7,5.3-1.7,12.1c-0.4,2.4-1.1,3.5-2.2,3.9L40.9,51l-0.5,0.2l-0.6,0.2c-0.2,0-0.3,0.2-0.5,0.2c-0.9,0.5-1.3,1.2-1.3,2.3
		c0.2,2.7,3,3.6,11.5,3.6c1.1,0,3.6-0.2,5.4-0.4c2-0.3,3.1-0.5,3.9-0.7c2.1-0.7,2.9-1.6,2.8-3c-0.1-1.1-0.4-1.3-2.5-2.3
		c-1.2-0.5-1.6-1.2-1.6-2.8c0-1.9,0.1-2.6,0.3-5.5c0.5-5.4,0.9-9.7,1.1-11c0.3-2.3,0.5-3.8,0.5-4c0.2-1.8,0.8-2.8,1.7-2.8
		c0.8,0,1.4,0.7,1.9,2.1c0.6,1.7,1,2.6,1.3,3.1c0.8,1.2,1.9,1.7,3.3,1.6C70.1,31.5,71.8,29.4,71.8,26.7 M82.9,37
		c-0.2,2.1-1,4.7-2.3,7.3c-1.5,3-3.1,4.8-4.1,4.8c-0.9,0-1.4-1.1-1.2-2.6c0.4-3.2,1.4-6.1,3.1-8.6c1.3-1.9,2.8-3.2,3.5-3
		C82.6,35.1,83,35.8,82.9,37 M93.8,34.4c0.2-1.2,0.3-2.3,0.4-3.3c0-1.4-0.5-2.2-1.6-2.3c-1.2-0.2-3,0.3-4.4,0.9L87.5,30l-0.6,0.4
		l-0.6,0.3c-0.5,0.3-1,0.4-1.3,0.4c-0.4,0-0.9-0.2-1.5-0.6c-2.4-1.4-3.2-1.7-4.7-1.7c-7.6,0-14.8,8.1-16,18
		c-0.8,6.2,2,10.7,6.6,10.9c2.6,0.1,5.4-1,7.6-2.9c2-1.8,2.4-2.2,2.9-2c0.5,0.2,0.5,0.2,0.7,2.1c0.2,1.4,1.1,2.3,2.5,2.5
		c2.2,0.3,5.1-0.5,8.2-2.3c2.3-1.3,3.7-2.8,3.9-4.1c0.2-1-0.4-1.6-1.3-1.7c-0.8-0.1-1-0.2-1.1-0.4c-0.3-0.5-0.4-1.7-0.3-3.1l0.2-1.9
		l0.2-1.8l0.2-1.8C93,39.2,93.3,37.1,93.8,34.4 M112.5,50.8c0.2-1-0.2-1.9-0.9-2c-0.3-0.1-0.7-0.1-1.2,0.1c-1.1,0.3-1.5-0.1-1.7-1.1
		c-0.1-0.5-0.1-1.1,0-1.7c0.2-2,0.3-2.5,0.6-5.1l0.2-1.5l0.2-1.5l1.5-13.8l0.1-0.8l0.1-0.8l0.1-0.8c0.1-0.9,0.2-1.5,0.1-2
		c-0.2-1.6-1.3-2.3-3.9-2.1c-3,0.2-5.4,0.7-8.4,1.7c-3.4,1.1-4.7,2.2-4.8,4c-0.1,1.1,0.4,1.8,1.2,1.9c0.4,0.1,0.9,0,1.5-0.1
		c0.9-0.1,1.3,0.2,1.3,1.1c0,0.9,0.1,0.2-0.6,5.3l-1.3,9.6c-0.5,3.9-0.9,6.9-1,7.2c-0.3,2-0.5,3.5-0.5,5.2c0,2.3,1.4,3.7,3.9,3.8
		c3.3,0.2,7.1-0.9,10.4-2.9C111.3,53.4,112.2,52.3,112.5,50.8 M130.9,50.8c0.2-1-0.2-1.9-0.9-2c-0.3-0.1-0.7-0.1-1.2,0.1
		c-1.1,0.3-1.5-0.1-1.7-1.1c-0.1-0.5-0.1-1.1,0-1.7c0.2-2,0.3-2.5,0.6-5.1l0.2-1.5l0.2-1.5l1.5-13.8l0.1-0.8l0.1-0.8l0.1-0.8
		c0.1-0.9,0.2-1.5,0.1-2c-0.2-1.6-1.3-2.3-3.9-2.1c-3,0.2-5.4,0.7-8.4,1.7c-3.4,1.1-4.7,2.2-4.8,4c-0.1,1.1,0.4,1.8,1.2,1.9
		c0.4,0.1,0.9,0,1.5-0.1c0.9-0.1,1.3,0.2,1.3,1.1c0,0.9,0.1,0.2-0.6,5.3l-1.3,9.6c-0.5,3.9-0.9,6.9-1,7.2c-0.3,2-0.5,3.5-0.5,5.2
		c0,2.3,1.4,3.7,3.9,3.8c3.3,0.2,7.1-0.9,10.4-2.9C129.8,53.4,130.7,52.3,130.9,50.8 M149.4,35.9c0,1.3-0.5,2.7-1.4,4.1
		c-0.9,1.4-2.1,2.3-2.8,2.2c-0.7,0-1.1-0.9-0.8-2.2c0.7-3.6,2.4-6.2,3.8-6.1C149,34.1,149.4,34.7,149.4,35.9 M160.3,35.5
		c0-4.7-2.7-7-8.1-7c-11.3,0-21.3,9.1-21.3,19.2c0,2.5,0.8,4.8,2.4,6.5c2.3,2.5,5.3,3.6,10.3,3.6c3.2,0,6.8-1,10.4-2.8
		c3.1-1.6,4.6-3.2,4.7-4.9c0.1-1.5-1.3-2.8-2.6-2.6c-0.5,0.1-1,0.4-1.7,0.8c-2.7,1.7-4.8,2.5-6.7,2.5c-1.7,0-3.3-1.1-3.4-2.4
		c-0.1-0.8,0.5-1.2,1.8-1.1C153,47.4,160.3,41.3,160.3,35.5 M192.6,33.7c-0.4-2.7-1.7-4.3-4.2-4.6c-2.9-0.4-5.4,1.5-5.4,4.1
		c0,0.7,0.2,1.4,0.5,1.9l0.7,1.3c0.8,1.3,0.5,0.9,0.7,1.3c0.6,1.3,0.8,2.5,0.7,4.1c-0.3,3.3-1.3,6-2.3,5.9c-0.3-0.1-0.6-0.4-0.7-1
		c-0.2-0.5-0.6-1.7-1-3.4c-0.8-2.7-2.6-7.5-4.2-10.9c-1.1-2.5-2.4-3.6-4.2-3.7c-1.1-0.1-2.4,0.2-3.9,0.9c-1.6,0.8-4.8,3.1-6.7,4.7
		c-1.9,1.7-2.6,2.8-2.7,3.9c-0.1,0.7,0.2,1.5,0.7,2.2c0.5,0.8,1.3,1.2,2,1.1c0.5-0.1,1.1-0.4,2-1.3c0.4-0.4,0.8-0.6,1-0.6
		c0.4,0,1.2,0.9,2,2.3c1,1.7,2.7,5.8,4,9.7c1,2.8,1.4,5,1.4,6.7c0,1.9-1.4,3.9-2.7,3.8c-0.6-0.1-0.8-0.5-0.8-1.3
		c0-0.4,0.1-0.8,0.1-1.4c0.1-0.7,0.1-1.4,0.1-1.9c-0.2-2.1-2.1-3.5-4.6-3.5c-3.6,0-6,2.7-5.6,6.2c0.5,4.3,4.4,7.4,9.5,7.4
		c6.9,0,13.2-4.2,18-12C191,49.1,193.4,40.1,192.6,33.7 M221.9,33.7c0.1-1.3-0.2-2.3-1.1-3c-1.7-1.6-5.3-2.5-8.7-2.2
		c-4.5,0.4-8,2.1-10.1,4.6c1.6-2.8,2.4-5.5,2.4-8.1c0-4.6-2.5-7.4-6.6-7.4c-3.6,0-5.9,2.3-5.9,5.7c0,2.8,0.9,4.4,3,5.6
		c0.9,0.5,1.2,0.9,1.2,1.5c0,1-0.8,2.8-1.8,4c-1.6,2-1.5,1.9-1.5,2.5c0,0.5,0.4,1.1,1.1,1.7c0.7,0.6,1.3,1,1.9,0.9
		c1.2-0.1,3.3-2,5.1-4.6c-0.3,0.7-0.5,1.5-0.6,2.3c-0.2,2.9,1,5.6,3.8,8.4c2.5,2.4,3.1,3.3,3.1,4.4c0,1-1,1.9-2.2,1.9
		c-1.2,0-2-0.5-2.6-1.7c-0.9-1.7-1.3-2.1-2.3-2.1c-1.5,0-2.9,1.6-3,3.6c-0.2,3.7,3.7,5.9,10.4,5.9c3.1,0,6.9-1,9.2-2.4
		c2.5-1.5,3.8-3.5,4.1-6.1c0.4-3.1-1.1-5.8-4.8-9.2c-2.5-2.3-3.1-3.2-3.1-4.3c0-1.1,0.7-1.7,1.7-1.7c0.9,0,1.4,0.4,2.3,1.7
		c0.6,1,1.3,1.4,2.1,1.4C220.4,37.2,221.7,35.6,221.9,33.7"/>
</g>
</svg>
